<svg width="18" height="22" viewBox="0 0 18 22" fill="none" xmlns="http://www.w3.org/2000/svg">
<path d="M12.7421 21.4254C11.4884 21.4254 10.5138 20.5806 9.19293 20.5806C7.84688 20.5806 6.51106 21.4569 5.64113 21.4569C3.14874 21.4569 0 16.0616 0 11.7247C0 7.45775 2.66522 5.21939 5.16513 5.21939C6.79025 5.21939 8.05139 6.15659 8.89623 6.15659C9.62157 6.15659 10.9676 5.15965 12.7197 5.15965C15.7357 5.15965 16.9221 7.30571 16.9221 7.30571C16.9221 7.30571 14.6016 8.49212 14.6016 11.3709C14.6016 14.6185 17.4923 15.7377 17.4923 15.7377C17.4923 15.7377 15.4715 21.4254 12.7421 21.4254Z" fill="white"/>
<path d="M9.65141 1.86724C11.0612 0.00906347 13.0212 0 13.0212 0C13.0212 0 13.3127 1.74695 11.9122 3.4299C10.4167 5.22691 8.71687 4.93281 8.71687 4.93281C8.71687 4.93281 8.39773 3.51955 9.65141 1.86724Z" fill="white"/>
</svg>
