<svg width="18" height="18" viewBox="0 0 18 18" fill="none" xmlns="http://www.w3.org/2000/svg">
<g clip-path="url(#clip0_36_649)">
<path d="M4.21875 9.00038C4.21875 8.10857 4.46446 7.27315 4.89132 6.55783V3.52356H1.85706C0.652781 5.08759 0 6.99373 0 9.00038C0 11.007 0.652781 12.9132 1.85706 14.4772H4.89132V11.4429C4.46446 10.7276 4.21875 9.89219 4.21875 9.00038Z" fill="white"/>
<path d="M8.99995 13.7813L6.89058 15.8907L8.99995 18C11.0066 18 12.9127 17.3472 14.4768 16.143V13.1119H11.4457C10.7242 13.5404 9.88522 13.7813 8.99995 13.7813Z" fill="white"/>
<path d="M4.89132 11.4425L1.85706 14.4768C2.09549 14.7864 2.35511 15.083 2.63605 15.3639C4.33592 17.0638 6.59601 18 9 18V13.7812C7.2554 13.7812 5.72635 12.8418 4.89132 11.4425Z" fill="white"/>
<path d="M18 9.00005C18 8.45249 17.9504 7.90392 17.8526 7.36961L17.7735 6.93723H8.99995V11.156H13.2698C12.8551 11.9808 12.2176 12.6537 11.4457 13.112L14.4768 16.143C14.7864 15.9046 15.083 15.645 15.3639 15.364C17.0638 13.6641 18 11.404 18 9.00005Z" fill="white"/>
<path d="M12.3808 5.61913L12.7537 5.992L15.7368 3.00892L15.3639 2.63605C13.6641 0.936176 11.404 0 8.99995 0L6.89058 2.10938L8.99995 4.21875C10.277 4.21875 11.4777 4.71607 12.3808 5.61913Z" fill="white"/>
<path d="M8.99999 4.21875V0C6.596 0 4.33591 0.936176 2.636 2.63602C2.35507 2.91695 2.09544 3.21349 1.85701 3.52318L4.89128 6.55745C5.72634 5.15812 7.25539 4.21875 8.99999 4.21875Z" fill="white"/>
</g>
<defs>
<clipPath id="clip0_36_649">
<rect width="18" height="18" fill="white"/>
</clipPath>
</defs>
</svg>
